<svg xmlns="http://www.w3.org/2000/svg" width="512" height="512" viewBox="0 0 512 512">
  <path id="_001-check-mark" data-name="001-check-mark" d="M369.164,174.77a20,20,0,0,1,0,28.285L234.992,337.231a20,20,0,0,1-28.285,0l-63.871-63.875a20,20,0,0,1,28.281-28.281l49.73,49.731L340.878,174.77a20,20,0,0,1,28.285,0ZM512,256c0,141.5-114.516,256-256,256C114.5,512,0,397.484,0,256,0,114.5,114.516,0,256,0,397.5,0,512,114.516,512,256Zm-40,0A216,216,0,1,0,256,472,215.88,215.88,0,0,0,472,256Zm0,0" transform="translate(0 0)" fill="#22c55e"/>
</svg>
