<svg xmlns="http://www.w3.org/2000/svg" width="512" height="512" viewBox="0 0 512 512">
  <g id="Group_1" data-name="Group 1" transform="translate(1696 -648)">
    <path id="_001-check-mark" data-name="001-check-mark" d="M512,256c0,141.5-114.516,256-256,256C114.5,512,0,397.484,0,256,0,114.5,114.516,0,256,0,397.5,0,512,114.516,512,256Zm-40,0A216,216,0,1,0,256,472,215.88,215.88,0,0,0,472,256Zm0,0" transform="translate(-1696 648)" fill="#d34e5a"/>
    <path id="_002-close" data-name="002-close" d="M112.835,95.5,187.1,21.231A12.355,12.355,0,0,0,169.626,3.759L95.36,78.025,21.1,3.759A12.355,12.355,0,0,0,3.625,21.231L77.888,95.5,3.625,169.763A12.355,12.355,0,1,0,21.1,187.235L95.36,112.969l74.266,74.266A12.355,12.355,0,1,0,187.1,169.763Zm0,0" transform="translate(-1535.5 808.364)" fill="#d34e5a" stroke="#d34e5a" stroke-width="11"/>
  </g>
</svg>
