<svg xmlns="http://www.w3.org/2000/svg" viewBox="0 0 1051.18 248.45"><defs><style>.cls-1{fill:#282828;}</style></defs><g id="Layer_2" data-name="Layer 2"><g id="Layer_1-2" data-name="Layer 1"><path class="cls-1" d="M1045.83,229s-100.51,3.57-104.65,3.57-7.49-1.6-7.49-3.57,3.36-3.57,7.49-3.57S1045.83,229,1045.83,229Z"/><path class="cls-1" d="M0,225.85s100.52-3.56,104.65-3.56,7.49,1.6,7.49,3.56-3.35,3.57-7.49,3.57S0,225.85,0,225.85Z"/><path class="cls-1" d="M5.28,40.64l94.6-14.48L104,52.77l-56.17,8.6L51.09,83l48-7.34,3.83,25-48,7.34,7.74,50.6-38.43,5.88Z"/><path class="cls-1" d="M138.67,147.31,125.32,22.76l64.15-6.88q17.84-1.92,27.6.13a29.24,29.24,0,0,1,16.42,9.72q6.66,7.65,7.94,19.55,1.11,10.38-2.5,18.36a34.81,34.81,0,0,1-10.85,13.5,47.08,47.08,0,0,1-13,6.38A38.79,38.79,0,0,1,225.6,87a38.87,38.87,0,0,1,6.86,5.89,49.53,49.53,0,0,1,6.22,7.16l22.51,34.1-43.49,4.66L193.05,103q-4.71-7-8-8.85a16.2,16.2,0,0,0-9.74-1.88l-3.4.36,5.42,50.56Zm30.72-78.23,16.23-1.74a58.88,58.88,0,0,0,10-2.79A10.26,10.26,0,0,0,201.45,60a11.58,11.58,0,0,0,1.65-7.48q-.65-6-4.81-8.85T183.58,42l-16.91,1.81Z"/><path class="cls-1" d="M260.66,71.57Q258.89,40.94,275,22.89T321.5,3.09q31.22-1.8,49.08,14t19.6,46q1.26,21.92-5.3,36.38a52.69,52.69,0,0,1-20.07,23.07q-13.5,8.61-34.31,9.81-21.17,1.21-35.41-4.72t-23.71-20Q261.91,93.5,260.66,71.57Zm38.65-2.06q1.1,18.93,8.61,26.8t19.63,7.17q12.45-.72,18.81-9.21t5.15-29.49q-1-17.65-8.62-25.39t-19.79-7q-11.69.68-18.29,9.35T299.31,69.51Z"/><path class="cls-1" d="M409,1,518.51,0l.23,25L449.09,99,522,98.32l.25,26.92-118.86,1.09-.24-26L472,27.17l-62.83.58Z"/><path class="cls-1" d="M542.68.45,646.35,4.16l-1,26.73-64.9-2.32-.72,19.89L640,50.62l-.92,25.53L578.87,74,578,98.67l66.77,2.4-1,28.35L538.2,125.64Z"/><path class="cls-1" d="M673.94,5.66l36,3,41.18,73L757,12.65l36.35,3.07L782.8,140.54l-36.36-3.06L705.47,65l-5.78,68.54-36.27-3Z"/><path class="cls-1" d="M823.25,19.28l38.38,5-12.27,93.62,59.9,7.85-4,30.59L807,143.48Z"/><path class="cls-1" d="M916.85,31.17l42.38,7.27L977,84.36,1009,47l42.15,7.23-60.32,63.52L982,169.45l-38.23-6.56,8.87-51.71Z"/><path class="cls-1" d="M184.4,194.29a52.72,52.72,0,0,1,10.77-1c5.54,0,9.6,1.6,12.17,4.48,2.39,2.56,3.81,6.48,3.81,11.28s-1.16,8.72-3.36,11.52c-3,3.92-7.79,5.92-13.27,5.92A15.69,15.69,0,0,1,190,226v21.6H184.4Zm5.61,26a15.28,15.28,0,0,0,4.64.56c6.77,0,10.89-4.08,10.89-11.52,0-7.12-4.06-10.56-10.25-10.56a19.15,19.15,0,0,0-5.28.56Z"/><path class="cls-1" d="M224.87,193.65h5.6v48.08H249v5.84H224.87Z"/><path class="cls-1" d="M268.49,230.61l-4.51,17h-5.8l14.76-53.92h6.76l14.82,53.92h-6l-4.64-17Zm14.24-5.44-4.25-15.52c-1-3.52-1.61-6.72-2.26-9.84h-.13c-.64,3.2-1.35,6.48-2.19,9.76l-4.25,15.6Z"/><path class="cls-1" d="M307.09,247.57V193.65h6.12l13.92,27.28a166.52,166.52,0,0,1,7.79,17.52l.13-.08c-.51-7.2-.64-13.76-.64-22.16V193.65h5.28v53.92H334l-13.79-27.36a185.78,185.78,0,0,1-8.12-18l-.19.08c.32,6.8.45,13.28.45,22.24v23Z"/><path class="cls-1" d="M363.92,199.57H350.71v-5.92h32.15v5.92H369.59v48h-5.67Z"/><path class="cls-1" d="M403.55,223.33v5.2H387.63v-5.2Z"/><path class="cls-1" d="M416.56,194.37a44.16,44.16,0,0,1,10.25-1.12c5.6,0,9.21,1.2,11.92,3.92,2.25,2.08,3.61,5.28,3.61,9.52A12.74,12.74,0,0,1,435,218.53v.16c4.12,1.28,9,5.52,9,13.52a16.38,16.38,0,0,1-3.68,10.8c-3,3.44-7.92,5-15,5a53,53,0,0,1-8.7-.64Zm5.61,22.08h5.09c5.93,0,9.41-3.84,9.41-9,0-6.32-3.87-8.8-9.54-8.8a19.47,19.47,0,0,0-5,.48Zm0,25.84a24.12,24.12,0,0,0,4.7.32c5.8,0,11.15-2.64,11.15-10.48,0-7.36-5.09-10.4-11.21-10.4h-4.64Z"/><path class="cls-1" d="M464.69,230.61l-4.51,17h-5.8l14.76-53.92h6.77l14.82,53.92h-6l-4.64-17Zm14.24-5.44-4.25-15.52c-1-3.52-1.61-6.72-2.25-9.84h-.13c-.65,3.2-1.36,6.48-2.19,9.76l-4.26,15.6Z"/><path class="cls-1" d="M502.52,239.09a17.1,17.1,0,0,0,10.05,3.52c5.73,0,9.08-3.76,9.08-9.2,0-5-2.32-7.92-8.18-10.72C506.38,219.57,502,215,502,207.41c0-8.4,5.61-14.64,14-14.64a16.68,16.68,0,0,1,9.6,2.64l-1.55,5.68a14.74,14.74,0,0,0-8.24-2.56c-5.93,0-8.19,4.4-8.19,8.08,0,5,2.64,7.52,8.64,10.4,7.34,3.52,11.08,7.92,11.08,15.84,0,8.32-5,15.52-15.21,15.52-4.19,0-8.76-1.52-11.08-3.44Z"/><path class="cls-1" d="M563.73,222.29H546.85v19.44h18.81v5.84H541.24V193.65H564.7v5.84H546.85v17h16.88Z"/><path class="cls-1" d="M579.13,194.37a65,65,0,0,1,11.92-1.12c8.05,0,13.79,2.32,17.59,6.72s6.12,10.64,6.12,19.36-2.19,16-6.25,21-10.76,7.76-19.2,7.76a73,73,0,0,1-10.18-.64Zm5.6,47.68a28.68,28.68,0,0,0,5.68.4c12,0,18.49-8.32,18.49-22.88.06-12.72-5.74-20.8-17.59-20.8a26,26,0,0,0-6.58.72Z"/><path class="cls-1" d="M648.07,193.65h23.39v5.84H653.68v17.92h16.43v5.76H653.68v24.4h-5.61Z"/><path class="cls-1" d="M722.75,220.05c0,18.56-9.08,28.4-20.17,28.4-11.47,0-19.52-11-19.52-27.36,0-17.12,8.57-28.32,20.17-28.32C715.09,192.77,722.75,204.05,722.75,220.05Zm-33.7.88c0,11.52,5,21.84,13.86,21.84s13.92-10.16,13.92-22.4c0-10.72-4.52-21.92-13.86-21.92S689.05,209.09,689.05,220.93Z"/><path class="cls-1" d="M773.33,220.05c0,18.56-9.08,28.4-20.16,28.4-11.47,0-19.53-11-19.53-27.36,0-17.12,8.57-28.32,20.17-28.32C765.67,192.77,773.33,204.05,773.33,220.05Zm-33.7.88c0,11.52,5,21.84,13.86,21.84s13.92-10.16,13.92-22.4c0-10.72-4.51-21.92-13.86-21.92S739.63,209.09,739.63,220.93Z"/><path class="cls-1" d="M786.8,194.37a65,65,0,0,1,11.92-1.12c8.06,0,13.79,2.32,17.59,6.72s6.12,10.64,6.12,19.36-2.19,16-6.25,21-10.76,7.76-19.2,7.76a73.06,73.06,0,0,1-10.18-.64Zm5.61,47.68a28.57,28.57,0,0,0,5.67.4c12,0,18.49-8.32,18.49-22.88.06-12.72-5.74-20.8-17.59-20.8a25.84,25.84,0,0,0-6.57.72Z"/><path class="cls-1" d="M835.13,239.09a17.1,17.1,0,0,0,10,3.52c5.73,0,9.08-3.76,9.08-9.2,0-5-2.32-7.92-8.18-10.72-7.09-3.12-11.47-7.68-11.47-15.28,0-8.4,5.61-14.64,14-14.64a16.7,16.7,0,0,1,9.6,2.64l-1.55,5.68a14.81,14.81,0,0,0-8.25-2.56c-5.92,0-8.18,4.4-8.18,8.08,0,5,2.64,7.52,8.64,10.4,7.34,3.52,11.08,7.92,11.08,15.84,0,8.32-5,15.52-15.21,15.52-4.19,0-8.76-1.52-11.08-3.44Z"/></g></g></svg>