<svg xmlns="http://www.w3.org/2000/svg" viewBox="0 0 1047.21 249.39"><defs><style>.cls-1{fill:#282828;}</style></defs><g id="Layer_2" data-name="Layer 2"><g id="Layer_1-2" data-name="Layer 1"><path class="cls-1" d="M1045.83,229s-100.51,3.57-104.65,3.57-7.49-1.6-7.49-3.57,3.36-3.57,7.49-3.57S1045.83,229,1045.83,229Z"/><path class="cls-1" d="M0,225.85s100.52-3.56,104.65-3.56,7.49,1.6,7.49,3.56-3.35,3.57-7.49,3.57S0,225.85,0,225.85Z"/><path class="cls-1" d="M1.31,40.64,95.92,26.16,100,52.77l-56.17,8.6L47.13,83l48-7.34,3.83,25L51,108l7.75,50.6-38.44,5.88Z"/><path class="cls-1" d="M134.7,147.31,121.35,22.76l64.15-6.88Q203.33,14,213.1,16a29.24,29.24,0,0,1,16.42,9.72q6.66,7.65,7.94,19.55,1.11,10.38-2.5,18.36a34.81,34.81,0,0,1-10.85,13.5,46.94,46.94,0,0,1-13,6.38A38.79,38.79,0,0,1,221.63,87a38.87,38.87,0,0,1,6.86,5.89,49.53,49.53,0,0,1,6.22,7.16l22.51,34.1-43.49,4.66L189.08,103q-4.71-7-8-8.85a16.2,16.2,0,0,0-9.74-1.88l-3.4.36,5.42,50.56Zm30.72-78.23,16.23-1.74a58.88,58.88,0,0,0,10-2.79A10.28,10.28,0,0,0,197.49,60a11.58,11.58,0,0,0,1.64-7.48q-.65-6-4.81-8.85T179.61,42L162.7,43.76Z"/><path class="cls-1" d="M256.69,71.57Q254.92,40.94,271,22.89t46.53-19.8q31.23-1.8,49.08,14t19.6,46q1.28,21.92-5.3,36.38a52.69,52.69,0,0,1-20.07,23.07q-13.5,8.61-34.31,9.81-21.16,1.21-35.41-4.72t-23.71-20Q258,93.5,256.69,71.57Zm38.65-2.06q1.1,18.93,8.61,26.8t19.63,7.17q12.45-.72,18.81-9.21t5.15-29.49q-1-17.65-8.61-25.39t-19.8-7q-11.69.68-18.29,9.35T295.34,69.51Z"/><path class="cls-1" d="M405,1,514.54,0l.23,25L445.12,99,518,98.32l.25,26.92-118.86,1.09-.23-26,68.91-73.18-62.83.58Z"/><path class="cls-1" d="M538.72.45,642.39,4.16l-1,26.73-64.9-2.32-.71,19.89L636,50.62l-.91,25.53L574.9,74,574,98.67l66.78,2.4-1,28.35-105.55-3.78Z"/><path class="cls-1" d="M670,5.66l36,3,41.18,73L753,12.65l36.36,3.07L778.83,140.54l-36.36-3.06L701.5,65l-5.77,68.54-36.28-3Z"/><path class="cls-1" d="M819.29,19.28l38.37,5-12.27,93.62,59.9,7.85-4,30.59L803,143.48Z"/><path class="cls-1" d="M912.88,31.17l42.38,7.27L973,84.36,1005.06,47l42.15,7.23-60.32,63.52L978,169.45l-38.24-6.56,8.87-51.71Z"/><path class="cls-1" d="M149.82,198.62a44,44,0,0,1,9.55-1c4.92,0,8.52,1.5,10.8,4.2,2.12,2.4,3.38,6.08,3.38,10.58s-1,8.17-3,10.8c-2.63,3.67-6.92,5.55-11.78,5.55a13.42,13.42,0,0,1-4-.45v20.25h-5Zm5,24.37a12.77,12.77,0,0,0,4.12.53c6,0,9.66-3.83,9.66-10.8,0-6.68-3.6-9.9-9.09-9.9a16.18,16.18,0,0,0-4.69.52Z"/><path class="cls-1" d="M182.87,198h5v45.07h16.47v5.48H182.87Z"/><path class="cls-1" d="M218.71,232.67l-4,15.9h-5.15L222.66,198h6l13.15,50.55h-5.32l-4.11-15.9Zm12.64-5.1L227.57,213c-.85-3.3-1.43-6.3-2-9.23h-.11c-.57,3-1.2,6.08-2,9.15l-3.77,14.63Z"/><path class="cls-1" d="M250.1,248.57V198h5.43l12.35,25.57A160.76,160.76,0,0,1,274.8,240l.11-.08c-.45-6.75-.57-12.9-.57-20.77V198H279v50.55h-5l-12.24-25.65a180.59,180.59,0,0,1-7.2-16.88l-.17.08c.28,6.37.4,12.45.4,20.85v21.6Z"/><path class="cls-1" d="M297.67,203.57H285.94V198h28.53v5.55H302.7v45h-5Z"/><path class="cls-1" d="M336.14,198.69a37.09,37.09,0,0,1,9.09-1.05c5,0,8.18,1.13,10.58,3.68,2,2,3.2,5,3.2,8.92a12,12,0,0,1-6.52,11.1v.15c3.66,1.2,7.95,5.18,7.95,12.68a15.84,15.84,0,0,1-3.26,10.12c-2.69,3.23-7,4.73-13.32,4.73a44.6,44.6,0,0,1-7.72-.6Zm5,20.7h4.51c5.26,0,8.35-3.6,8.35-8.47,0-5.93-3.43-8.25-8.46-8.25a16.17,16.17,0,0,0-4.4.45Zm0,24.23a20.69,20.69,0,0,0,4.17.3c5.14,0,9.89-2.48,9.89-9.83,0-6.9-4.52-9.75-9.95-9.75h-4.11Z"/><path class="cls-1" d="M376,232.67l-4,15.9h-5.15L379.93,198h6l13.15,50.55h-5.32l-4.12-15.9Zm12.64-5.1L384.85,213c-.86-3.3-1.43-6.3-2-9.23h-.11c-.58,3-1.2,6.08-1.95,9.15L377,227.57Z"/><path class="cls-1" d="M406.69,240.62a14.7,14.7,0,0,0,8.92,3.3c5.09,0,8.06-3.53,8.06-8.63,0-4.72-2.06-7.42-7.26-10-6.29-2.92-10.18-7.2-10.18-14.32,0-7.88,5-13.73,12.47-13.73a14.24,14.24,0,0,1,8.52,2.48L425.84,205a12.63,12.63,0,0,0-7.31-2.4c-5.26,0-7.27,4.13-7.27,7.58,0,4.72,2.35,7.05,7.67,9.75,6.51,3.3,9.83,7.42,9.83,14.85,0,7.8-4.4,14.55-13.49,14.55-3.72,0-7.78-1.43-9.84-3.23Z"/><path class="cls-1" d="M458.15,224.87h-15v18.22h16.69v5.48H438.19V198H459v5.47H443.17v16h15Z"/><path class="cls-1" d="M469,198.69a54.7,54.7,0,0,1,10.58-1.05c7.14,0,12.23,2.18,15.61,6.3s5.43,10,5.43,18.15-1.95,15-5.55,19.65S485.47,249,478,249a62.16,62.16,0,0,1-9-.6Zm5,44.7a24.09,24.09,0,0,0,5,.38c10.63,0,16.4-7.8,16.4-21.45.06-11.93-5.08-19.5-15.6-19.5a22.1,22.1,0,0,0-5.84.67Z"/><path class="cls-1" d="M523.72,240.62a14.7,14.7,0,0,0,8.92,3.3c5.09,0,8.06-3.53,8.06-8.63,0-4.72-2.06-7.42-7.26-10-6.29-2.92-10.18-7.2-10.18-14.32,0-7.88,5-13.73,12.47-13.73a14.18,14.18,0,0,1,8.51,2.48L542.87,205a12.66,12.66,0,0,0-7.32-2.4c-5.26,0-7.26,4.13-7.26,7.58,0,4.72,2.35,7.05,7.66,9.75,6.52,3.3,9.84,7.42,9.84,14.85,0,7.8-4.4,14.55-13.5,14.55-3.71,0-7.77-1.43-9.83-3.23Z"/><path class="cls-1" d="M560.19,198v29.92c0,11.33,3.84,16.13,9,16.13,5.72,0,9.38-4.95,9.38-16.13V198h5v29.47c0,15.53-6.23,21.9-14.58,21.9-7.89,0-13.84-5.92-13.84-21.6V198Z"/><path class="cls-1" d="M594.84,198.62a44,44,0,0,1,9.55-1c4.91,0,8.52,1.5,10.8,4.2,2.12,2.4,3.38,6.08,3.38,10.58s-1,8.17-3,10.8c-2.63,3.67-6.91,5.55-11.77,5.55a13.42,13.42,0,0,1-4-.45v20.25h-5Zm5,24.37a12.77,12.77,0,0,0,4.12.53c6,0,9.66-3.83,9.66-10.8,0-6.68-3.6-9.9-9.09-9.9a16.18,16.18,0,0,0-4.69.52Z"/><path class="cls-1" d="M647.84,224.87h-15v18.22h16.69v5.48H627.88V198H648.7v5.47H632.86v16h15Z"/><path class="cls-1" d="M658.64,198.69a40.17,40.17,0,0,1,9.55-1.05c5.32,0,8.75,1.28,11.15,4.13a14.76,14.76,0,0,1,3,9.6c0,6.67-3.2,11.1-7.26,12.9v.22c3,1.35,4.74,4.95,5.66,10.2,1.26,7.05,2.17,11.93,3,13.88H678.6c-.63-1.43-1.49-5.78-2.58-12.08-1.14-7-3.2-9.6-7.72-9.82h-4.68v21.9h-5Zm5,23h5.09c5.31,0,8.69-3.83,8.69-9.6,0-6.53-3.61-9.38-8.87-9.45a15.77,15.77,0,0,0-4.91.6Z"/><path class="cls-1" d="M724.51,226.37c-.29-7.05-.63-15.53-.58-21.83h-.17c-1.31,5.93-2.91,12.23-4.86,19.2l-6.8,24.53h-3.77l-6.24-24.08c-1.83-7.12-3.37-13.65-4.46-19.65h-.11c-.11,6.3-.4,14.78-.74,22.35l-1,21.68H691L693.69,198H700l6.57,24.45c1.6,6.22,2.92,11.77,3.89,17h.17c1-5.1,2.34-10.65,4.06-17L721.59,198h6.35l2.4,50.55h-4.86Z"/><path class="cls-1" d="M746.29,232.67l-4,15.9h-5.14L750.23,198h6l13.15,50.55h-5.31L760,232.67Zm12.63-5.1L755.15,213c-.86-3.3-1.43-6.3-2-9.23H753c-.57,3-1.2,6.08-1.94,9.15l-3.77,14.63Z"/><path class="cls-1" d="M777.67,198.69a40.17,40.17,0,0,1,9.55-1.05c5.32,0,8.75,1.28,11.15,4.13a14.76,14.76,0,0,1,3,9.6c0,6.67-3.2,11.1-7.26,12.9v.22c3,1.35,4.74,4.95,5.66,10.2,1.26,7.05,2.17,11.93,3,13.88h-5.14c-.63-1.43-1.49-5.78-2.58-12.08-1.14-7-3.2-9.6-7.71-9.82h-4.69v21.9h-5Zm5,23h5.09c5.31,0,8.69-3.83,8.69-9.6,0-6.53-3.61-9.38-8.87-9.45a15.77,15.77,0,0,0-4.91.6Z"/><path class="cls-1" d="M811.06,198h5v24.37h.17c1-1.95,2-3.75,3-5.4L831,198h6.18l-14,21.45,15,29.1h-5.89l-12.7-24.83L816,229.29v19.28h-5Z"/><path class="cls-1" d="M864.63,224.87h-15v18.22h16.7v5.48H844.68V198h20.81v5.47H849.65v16h15Z"/><path class="cls-1" d="M883.67,203.57H872V198h28.53v5.55H888.7v45h-5Z"/></g></g></svg>