<svg xmlns="http://www.w3.org/2000/svg" viewBox="0 0 337.7 72.71"><defs><style>.cls-1{fill:#fc9b8e;}</style></defs><g id="Layer_2" data-name="Layer 2"><g id="Layer_1-2" data-name="Layer 1"><path class="cls-1" d="M68,3.79,38,35.84,68,67.89c2,2,1.13,3.79-1.63,3.79H3.07A2.76,2.76,0,0,1,0,68.61V3.07A2.76,2.76,0,0,1,3.07,0H66.36C69.12,0,69.94,1.84,68,3.79Z"/><path class="cls-1" d="M86.93,68.61V3.07A2.76,2.76,0,0,1,90,0h24.57a2.76,2.76,0,0,1,3.08,3.07V68.61q0,3.08-3.08,3.07H90A2.81,2.81,0,0,1,86.93,68.61Z"/><path class="cls-1" d="M135.06,35.33V3.07A2.8,2.8,0,0,1,138.13,0h61.44a2.76,2.76,0,0,1,3.08,3.07V35.33c0,19.05-9.42,37.38-33.8,37.38S135.06,54.38,135.06,35.33Z"/><path class="cls-1" d="M288,3.79,258,35.84l30,32.05c1.95,2,1.13,3.79-1.63,3.79H223.12a2.76,2.76,0,0,1-3.07-3.07V3.07A2.76,2.76,0,0,1,223.12,0h63.29C289.17,0,290,1.84,288,3.79Z"/><path class="cls-1" d="M307,68.61V3.07A2.76,2.76,0,0,1,310.06,0h24.57a2.75,2.75,0,0,1,3.07,3.07V68.61q0,3.08-3.07,3.07H310.06A2.81,2.81,0,0,1,307,68.61Z"/></g></g></svg>