<svg id="Capa_1" enable-background="new 0 0 512 512" height="512" viewBox="0 0 512 512" width="512" xmlns="http://www.w3.org/2000/svg"><g><path d="m364 145h-45v-34h97c11.647 0 18.852-12.734 12.862-22.717l-19.426-32.377 19.509-33.328c5.842-9.98-1.366-22.578-12.945-22.578h-112c-8.284 0-15 6.716-15 15v130h-141c-59 0-107 48-107 107v164c0 8.284 6.716 15 15 15h169v66c0 8.284 6.716 15 15 15s15-6.716 15-15v-66h34v66c0 8.284 6.716 15 15 15s15-6.716 15-15v-66h137c8.284 0 15-6.716 15-15v-164c0-59-48-107-107-107zm-45-115h70.838l-10.784 18.422c-2.769 4.73-2.737 10.595.083 15.295l10.37 17.283h-70.507zm-248 222c0-42.458 34.542-77 77-77s77 34.542 77 77v149h-154zm370 149c-44.22 0-141.831 0-186 0v-149c0-30.206-12.585-57.525-32.783-77h66.783v41c0 8.284 6.716 15 15 15s15-6.716 15-15v-41h45c42.458 0 77 34.542 77 77z"/></g></svg>