<svg xmlns="http://www.w3.org/2000/svg" xmlns:xlink="http://www.w3.org/1999/xlink" id="svg8" version="1.1" viewBox="0 0 500 56"><g id="layer1"><rect id="rect855" width="90" height="56" x="0" y="0" fill="#fff" stroke-miterlimit="0" stroke-width="0" rx="5" ry="5"/><use id="use857" width="100%" height="100%" x="0" y="0" transform="translate(102)" xlink:href="#rect855"/><use id="use859" width="100%" height="100%" x="0" y="0" transform="translate(104)" xlink:href="#use857"/><use id="use861" width="100%" height="100%" x="0" y="0" transform="translate(206)" xlink:href="#use857"/><use id="use863" width="100%" height="100%" x="0" y="0" transform="translate(308)" xlink:href="#use857"/><g id="g892" transform="matrix(.02304 0 0 .02304 20.73 9.64)"><path id="path871" fill="#231f20" d="M1960.59 1534.9v4h3.73a3.93 3.93 0 002-.51 1.78 1.78 0 00.75-1.53 1.71 1.71 0 00-.75-1.49 3.59 3.59 0 00-2-.51h-3.73zm3.77-2.83a6.92 6.92 0 014.48 1.3 4.3 4.3 0 011.57 3.54 4.06 4.06 0 01-1.26 3.11 6.14 6.14 0 01-3.58 1.49l5 5.7h-3.85l-4.6-5.66h-1.49v5.66h-3.22v-15.13h7zm-1 20.36a12 12 0 004.91-1 12.86 12.86 0 004-2.71 12.63 12.63 0 002.71-4 12.94 12.94 0 000-9.9 13.07 13.07 0 00-2.71-4 12.89 12.89 0 00-4-2.71 12.59 12.59 0 00-4.91-.94 13.12 13.12 0 00-5 .94 12.77 12.77 0 00-4.09 2.71 12.92 12.92 0 00-2.67 14 11.92 11.92 0 002.67 4 12.81 12.81 0 004.09 2.71 12.45 12.45 0 005 1m0-29a16.74 16.74 0 0111.75 4.8 16 16 0 013.54 5.19 16.09 16.09 0 010 12.65 16.88 16.88 0 01-3.54 5.19 17.85 17.85 0 01-5.27 3.5 16.33 16.33 0 01-6.48 1.3 16.6 16.6 0 01-6.56-1.3 17.08 17.08 0 01-5.31-3.5 16.88 16.88 0 01-3.49-5.36 16.09 16.09 0 010-12.65 16 16 0 013.54-5.19 15.8 15.8 0 015.31-3.5 16.6 16.6 0 016.56-1.3M432.16 1465.1c0-28.85 18.9-52.55 49.79-52.55 29.52 0 49.44 22.68 49.44 52.55 0 29.87-19.92 52.55-49.44 52.55-30.89 0-49.79-23.7-49.79-52.55m132.88 0V1383h-35.69v20c-11.32-14.78-28.49-24.05-51.84-24.05-46 0-82.1 36.08-82.1 86.19s36.08 86.19 82.1 86.19c23.34 0 40.52-9.28 51.84-24.05v19.93H565v-82.11zm1205.92 0c0-28.85 18.9-52.55 49.8-52.55 29.55 0 49.44 22.68 49.44 52.55 0 29.87-19.89 52.55-49.44 52.55-30.89 0-49.8-23.7-49.8-52.55m132.92 0v-148h-35.72v85.9c-11.32-14.78-28.49-24.05-51.84-24.05-46 0-82.1 36.08-82.1 86.19s36.08 86.19 82.1 86.19c23.35 0 40.52-9.28 51.84-24.05v19.93h35.72zM1008 1410.86c23 0 37.77 14.42 41.54 39.81h-85.16c3.81-23.7 18.2-39.81 43.63-39.81m.71-32c-48.1 0-81.75 35-81.75 86.19 0 52.19 35 86.19 84.14 86.19 24.72 0 47.36-6.17 67.28-23l-17.49-26.45c-13.76 11-31.28 17.17-47.75 17.17-23 0-43.94-10.65-49.09-40.2h121.87c.35-4.44.71-8.92.71-13.72-.36-51.17-32-86.19-77.94-86.19m430.9 86.19c0-28.85 18.9-52.55 49.79-52.55 29.52 0 49.44 22.68 49.44 52.55 0 29.87-19.92 52.55-49.44 52.55-30.89 0-49.8-23.7-49.8-52.55m132.88 0V1383h-35.67v20c-11.36-14.78-28.49-24.05-51.84-24.05-46 0-82.1 36.08-82.1 86.19s36.08 86.19 82.1 86.19c23.35 0 40.48-9.28 51.84-24.05v19.93h35.68v-82.11zm-334.42 0c0 49.79 34.66 86.19 87.56 86.19 24.72 0 41.19-5.5 59-19.57l-17.14-28.85c-13.4 9.63-27.47 14.78-43 14.78-28.49-.35-49.44-20.95-49.44-52.55 0-31.6 20.95-52.19 49.44-52.55 15.49 0 29.56 5.15 43 14.78l17.14-28.85c-17.84-14.07-34.31-19.57-59-19.57-52.9 0-87.56 36.39-87.56 86.19m460.1-86.19c-20.59 0-34 9.63-43.27 24.05V1383h-35.37v164.12h35.73v-92c0-27.16 11.67-42.25 35-42.25a57.87 57.87 0 0122.32 4.13l11-33.64c-7.9-3.11-18.2-4.48-25.43-4.48m-956.64 17.17c-17.17-11.32-40.83-17.17-66.93-17.17-41.58 0-68.35 19.93-68.35 52.54 0 26.76 19.93 43.27 56.63 48.42l16.86 2.4c19.57 2.75 28.81 7.9 28.81 17.17 0 12.69-13 19.93-37.41 19.93-24.72 0-42.56-7.9-54.59-17.17L599.74 1530c19.57 14.42 44.29 21.3 71.06 21.3 47.4 0 74.87-22.32 74.87-53.57 0-28.85-21.62-43.94-57.34-49.09l-16.82-2.44c-15.45-2-27.83-5.11-27.83-16.11 0-12 11.67-19.22 31.25-19.22 20.95 0 41.23 7.9 51.17 14.07l15.45-28.85zm460.51-17.14c-20.59 0-34 9.63-43.23 24.05V1383h-35.37v164.12h35.69v-92c0-27.16 11.67-42.25 35-42.25a57.87 57.87 0 0122.32 4.13l11-33.64c-7.9-3.11-18.2-4.48-25.43-4.48M897.44 1383h-58.36v-49.79H803V1383h-33.29v32.62H803v74.87c0 38.08 14.78 60.76 57 60.76 15.49 0 33.33-4.8 44.65-12.69L894.34 1508c-10.65 6.17-22.32 9.28-31.6 9.28-17.84 0-23.66-11-23.66-27.47v-74.16h58.36zm-533.59 164.16v-103c0-38.79-24.72-64.89-64.57-65.24-20.95-.35-42.56 6.17-57.69 29.2-11.32-18.2-29.16-29.2-54.24-29.2-17.53 0-34.66 5.15-48.07 24.37V1383h-35.72v164.12h36v-91c0-28.49 15.8-43.63 40.2-43.63 23.7 0 35.69 15.45 35.69 43.27v91.34h36.08v-91c0-28.49 16.47-43.63 40.16-43.63 24.37 0 36 15.45 36 43.27v91.34z"/><path id="path873" fill="#f79410" d="M1980.94 1001.22v-24h-6.25l-7.23 16.47-7.19-16.47H1954v24h4.44v-18.08l6.76 15.6h4.6l6.76-15.64v18.12h4.4zm-39.65 0v-19.89h8v-4.05h-20.44v4.05h8v19.89h4.4z"/><path id="path875" fill="#ff5f00" d="M1270.57 1104.15H729.71v-972h540.87z"/><path id="path877" fill="#eb001b" d="M764 618.17c0-197.17 92.32-372.81 236.08-486A615.46 615.46 0 00618.09 0C276.72 0 0 276.76 0 618.17c0 341.41 276.72 618.17 618.09 618.17a615.46 615.46 0 00382-132.17C856.34 991 764 815.35 764 618.17"/><path id="path879" fill="#f79e1b" d="M2000.25 618.17c0 341.41-276.72 618.17-618.09 618.17a615.65 615.65 0 01-382.05-132.17c143.8-113.19 236.12-288.82 236.12-486s-92.32-372.81-236.12-486A615.65 615.65 0 011382.15 0c341.37 0 618.09 276.76 618.09 618.17"/></g><path id="path894" fill="#1a1f71" stroke-width=".2" d="M138.67 19.66l-6.75 16.1h-4.4l-3.32-12.85c-.2-.8-.38-1.08-1-1.42-1-.54-2.65-1.05-4.1-1.36l.1-.47h7.09c.9 0 1.71.6 1.92 1.64l1.75 9.32 4.34-10.96zm5.96 0l-3.45 16.1h-4.16l3.44-16.1zm11.3 10.84c.01-4.25-5.88-4.48-5.84-6.38.01-.58.56-1.2 1.77-1.35.6-.08 2.24-.14 4.1.72l.74-3.41c-1-.37-2.3-.72-3.9-.72-4.12 0-7.02 2.2-7.04 5.33-.03 2.31 2.07 3.6 3.65 4.38 1.62.79 2.16 1.3 2.16 2-.01 1.08-1.3 1.56-2.5 1.58-2.09.03-3.3-.57-4.27-1.02l-.76 3.53c.98.45 2.77.83 4.63.85 4.38 0 7.24-2.16 7.26-5.5zm10.87 5.26h3.85l-3.36-16.1h-3.56c-.8 0-1.47.46-1.77 1.18l-6.25 14.92h4.37l.87-2.4h5.35zm-4.65-5.7l2.2-6.05 1.26 6.05z"/><g id="Symbols" transform="matrix(.37405 0 0 .37405 216.25 16.91)"><g id="logos-_x2F_-amex"><g id="amex-logo"><path id="path3046" d="M9.3.1L0 21.8h6.1l1.7-4.3h10l1.7 4.3h6.2L16.4.1zm3.5 5.1l3.1 7.6H9.7z" class="st0"/><path id="path3048" d="M31.8 21.8h-5.4V.1H35l5.1 14L45 .1h8.5v21.7h-5.4v-16l-5.7 16h-4.8l-5.8-16z" class="st0"/><path id="path3050" d="M57.3 21.8V.1H75V5H62.7v3.7h12v4.5h-12v3.9H75v4.7z" class="st0"/><path id="path3052" d="M78.1.1v21.7h5.4v-7.7h2.3l6.5 7.7H99l-7.1-8c2.9-.2 6-2.8 6-6.7 0-4.6-3.6-7-7.6-7zM83.5 5h6.2c1.5 0 2.6 1.2 2.6 2.3 0 1.4-1.4 2.3-2.5 2.3h-6.3z" class="st0"/><path id="path3054" d="M105.5 21.8H100V.1h5.5z" class="st0"/><path id="path3056" d="M118.7 21.8h-1.2c-5.8 0-9.3-4.6-9.3-10.8 0-6.4 3.5-10.9 10.8-10.9h6v5.1h-6.2c-3 0-5.1 2.3-5.1 5.9 0 4.2 2.4 6 5.9 6h1.4z" class="st0"/><path id="path3058" d="M130.5.1l-9.3 21.7h6.1l1.7-4.3h10l1.7 4.3h6.2L137.6.1zm3.5 5.1l3.1 7.6H131z" class="st0"/><path id="path3060" d="M154.4.1l8.9 13.6V.1h5.4v21.7H162l-9-14v14h-5.5V.1z" class="st0"/><path id="path3062" d="M57.3 33H45v3.7h12v4.6H45v3.8h12.3v4.7H39.5V28.1h17.8z" class="st0" transform="translate(-.46 9.54)"/><path id="path3064" d="M144.1 33h-12.3v3.7h11.9v4.6h-11.9v3.8h12.3v4.7h-17.8V28.1h17.8z" class="st0" transform="translate(-.46 9.54)"/><path id="path3066" d="M64.6 28.1l5.2 6.8 5.3-6.8h6.6L73 39l8.6 10.8h-6.8l-5.1-6.7-5 6.7h-6.8l8.7-10.7-8.9-11z" class="st0" transform="translate(-.46 9.54)"/><path id="path3068" d="M81.84 37.64v21.7h5.6v-6.8h5.7c4.8 0 8.5-2.6 8.5-7.6 0-4.1-2.9-7.3-7.8-7.3zm5.5 4.9h6c1.6 0 2.7 1 2.7 2.5 0 1.4-1.1 2.5-2.7 2.5h-6z" class="st0"/><path id="path3072" d="M103.94 37.64v21.7h5.4v-7.7h2.3l6.5 7.7h6.6l-7.1-8c2.9-.2 6-2.8 6-6.7 0-4.6-3.6-7-7.6-7zm5.4 4.9h6.2c1.5 0 2.6 1.2 2.6 2.3 0 1.4-1.4 2.3-2.5 2.3h-6.3z" class="st0"/><path id="path3074" d="M146.14 59.34v-4.7h10.9c1.6 0 2.3-.9 2.3-1.8s-.7-1.8-2.3-1.8h-4.9c-4.3 0-6.6-2.6-6.6-6.5 0-3.5 2.2-6.8 8.5-6.8h10.5l-2.3 4.9h-9.1c-1.7 0-2.3.9-2.3 1.8s.7 1.9 2 1.9h5.1c4.8 0 6.8 2.7 6.8 6.2 0 3.8-2.3 6.9-7.1 6.9h-11.5z" class="st0"/><path id="path3076" d="M166.04 59.34v-4.7h10.9c1.6 0 2.3-.9 2.3-1.8s-.7-1.8-2.3-1.8h-4.9c-4.3 0-6.6-2.6-6.6-6.5 0-3.5 2.2-6.8 8.5-6.8h10.6l-2.3 4.9h-9.1c-1.7 0-2.3.9-2.3 1.8s.7 1.9 2 1.9h5.1c4.8 0 6.8 2.7 6.8 6.2 0 3.8-2.3 6.9-7.1 6.9h-11.6z" class="st0"/></g></g></g><g id="g983" fill="#a1a1a1" transform="matrix(.11974 0 0 .11974 326.34 17.27)"><path id="path954" fill="#5f6368" d="M206.2 84.58v50.75h-16.1V10h42.7a38.61 38.61 0 0127.65 10.85A34.88 34.88 0 01272 47.3a34.72 34.72 0 01-11.55 26.6q-11.2 10.68-27.65 10.67h-26.6zm0-59.15v43.75h27a21.28 21.28 0 0015.93-6.48 21.36 21.36 0 000-30.63 21 21 0 00-15.93-6.65h-27z"/><path id="path956" fill="#5f6368" d="M309.1 46.78q17.85 0 28.18 9.54 10.33 9.54 10.32 26.16v52.85h-15.4v-11.9h-.7q-10 14.7-26.6 14.7-14.17 0-23.71-8.4a26.82 26.82 0 01-9.54-21q0-13.31 10.06-21.17 10.06-7.86 26.86-7.88 14.34 0 23.62 5.25v-3.68A18.33 18.33 0 00325.54 67 22.8 22.8 0 00310 61.13q-13.49 0-21.35 11.38l-14.18-8.93q11.7-16.8 34.63-16.8zm-20.83 62.3a12.86 12.86 0 005.34 10.5 19.64 19.64 0 0012.51 4.2 25.67 25.67 0 0018.11-7.52q8-7.53 8-17.67-7.53-6-21-6-9.81 0-16.36 4.73c-4.41 3.2-6.6 7.09-6.6 11.76z"/><path id="path958" fill="#5f6368" d="M436 49.58l-53.76 123.55h-16.62l19.95-43.23-35.35-80.32h17.5l25.55 61.6h.35l24.85-61.6z"/><path id="path960" fill="#4285f4" d="M141.14 73.64A85.79 85.79 0 00139.9 59H72v27.73h38.89a33.33 33.33 0 01-14.38 21.88v18h23.21c13.59-12.53 21.42-31.06 21.42-52.97z"/><path id="path962" fill="#34a853" d="M72 144c19.43 0 35.79-6.38 47.72-17.38l-23.21-18C90.05 113 81.73 115.5 72 115.5c-18.78 0-34.72-12.66-40.42-29.72H7.67v18.55A72 72 0 0072 144z"/><path id="path964" fill="#fbbc04" d="M31.58 85.78a43.14 43.14 0 010-27.56V39.67H7.67a72 72 0 000 64.66z"/><path id="path966" fill="#ea4335" d="M72 28.5a39.09 39.09 0 0127.62 10.8l20.55-20.55A69.18 69.18 0 0072 0 72 72 0 007.67 39.67l23.91 18.55C37.28 41.16 53.22 28.5 72 28.5z"/></g><g id="g1012" transform="translate(429.5 17.51) scale(.10322)"><path id="XMLID_34_" d="M93.6 27.1C87.6 34.2 78 39.8 68.4 39c-1.2-9.6 3.5-19.8 9-26.1 6-7.3 16.5-12.5 25-12.9 1 10-2.9 19.8-8.8 27.1m8.7 13.8c-13.9-.8-25.8 7.9-32.4 7.9-6.7 0-16.8-7.5-27.8-7.3-14.3.2-27.6 8.3-34.9 21.2-15 25.8-3.9 64 10.6 85 7.1 10.4 15.6 21.8 26.8 21.4 10.6-.4 14.8-6.9 27.6-6.9 12.9 0 16.6 6.9 27.8 6.7 11.6-.2 18.9-10.4 26-20.8 8.1-11.8 11.4-23.3 11.6-23.9-.2-.2-22.4-8.7-22.6-34.3-.2-21.4 17.5-31.6 18.3-32.2-10-14.8-25.6-16.4-31-16.8m80.3-29v155.9h24.2v-53.3h33.5c30.6 0 52.1-21 52.1-51.4s-21.1-51.2-51.3-51.2zm24.2 20.4h27.9c21 0 33 11.2 33 30.9s-12 31-33.1 31h-27.8zM336.6 169c15.2 0 29.3-7.7 35.7-19.9h.5v18.7h22.4V90.2c0-22.5-18-37-45.7-37-25.7 0-44.7 14.7-45.4 34.9h21.8c1.8-9.6 10.7-15.9 22.9-15.9 14.8 0 23.1 6.9 23.1 19.6v8.6l-30.2 1.8c-28.1 1.7-43.3 13.2-43.3 33.2 0 20.2 15.7 33.6 38.2 33.6zm6.5-18.5c-12.9 0-21.1-6.2-21.1-15.7 0-9.8 7.9-15.5 23-16.4l26.9-1.7v8.8c0 14.6-12.4 25-28.8 25zm82 59.7c23.6 0 34.7-9 44.4-36.3L512 54.7h-24.6l-28.5 92.1h-.5l-28.5-92.1h-25.3l41 113.5-2.2 6.9c-3.7 11.7-9.7 16.2-20.4 16.2-1.9 0-5.6-.2-7.1-.4v18.7c1.4.4 7.4.6 9.2.6z"/></g></g><style id="style908" type="text/css">.st0{fill:#016fd0}</style></svg>
